<svg width="80" height="80" viewBox="0 0 80 80" fill="none" xmlns="http://www.w3.org/2000/svg">
<path d="M0 2C0 0.895429 0.895431 0 2 0H78C79.1046 0 80 0.895431 80 2V65C80 73.2843 73.2843 80 65 80H15C6.71573 80 0 73.2843 0 65V2Z" fill="url(#paint0_linear)"/>
<path d="M24.15 25H40.05C43.85 25 47.2 25.7333 50.1 27.2C53.0333 28.6333 55.3 30.6667 56.9 33.3C58.5333 35.9333 59.35 39 59.35 42.5C59.35 46 58.5333 49.0667 56.9 51.7C55.3 54.3333 53.0333 56.3833 50.1 57.85C47.2 59.2833 43.85 60 40.05 60H24.15V25ZM39.65 53.35C43.15 53.35 45.9333 52.3833 48 50.45C50.1 48.4833 51.15 45.8333 51.15 42.5C51.15 39.1667 50.1 36.5333 48 34.6C45.9333 32.6333 43.15 31.65 39.65 31.65H32.25V53.35H39.65Z" fill="white"/>
<rect x="20" y="40" width="41" height="7" fill="url(#paint1_linear)"/>
<path d="M43.2275 37.5687C43.1884 37.411 43.0991 37.2704 42.973 37.1679C42.847 37.0655 42.6911 37.0067 42.5288 37.0005C42.3665 36.9944 42.2066 37.0411 42.0732 37.1337C41.9397 37.2263 41.84 37.3597 41.789 37.5139L39.3995 44.6794L37.1855 39.6964C37.1252 39.562 37.0268 39.4483 36.9024 39.3694C36.778 39.2905 36.6332 39.2499 36.486 39.2526C36.3387 39.2553 36.1955 39.3013 36.0741 39.3847C35.9527 39.4681 35.8585 39.5854 35.8033 39.7219L34.4922 43.0009H32V44.5009H34.4922C35.1095 44.5009 35.6562 44.1304 35.8842 43.5582L36.536 41.9292L38.8138 47.0554C38.9352 47.3277 39.2045 47.5009 39.5 47.5009L39.536 47.5002C39.6871 47.493 39.8325 47.4402 39.953 47.3488C40.0735 47.2573 40.1634 47.1315 40.211 46.9879L42.3965 40.4314L43.1307 43.3647C43.2113 43.6895 43.3984 43.978 43.6621 44.1839C43.9259 44.3899 44.2511 44.5015 44.5858 44.5009H47V43.0009H44.585L43.2275 37.5687Z" fill="white"/>
<defs>
<linearGradient id="paint0_linear" x1="40" y1="0" x2="40" y2="80" gradientUnits="userSpaceOnUse">
<stop stop-color="#54ADFF"/>
<stop offset="0.343142" stop-color="#4BA2F1"/>
<stop offset="0.619917" stop-color="#3299F9"/>
<stop offset="1" stop-color="#3A8CD8"/>
</linearGradient>
<linearGradient id="paint1_linear" x1="40.5" y1="40" x2="40.5" y2="47" gradientUnits="userSpaceOnUse">
<stop stop-color="#53ACFE"/>
<stop offset="1" stop-color="#3298F5"/>
</linearGradient>
</defs>
</svg>
