<svg width="414" height="903" viewBox="0 0 414 903" fill="none" xmlns="http://www.w3.org/2000/svg">
<g filter="url(#filter0_d)">
<path fill-rule="evenodd" clip-rule="evenodd" d="M207.518 896.081C316.819 896.081 405.426 892.657 405.426 888.434C405.426 884.21 284.062 882.296 207.518 882.296C130.973 882.296 9.60956 884.21 9.60956 888.434C9.60956 892.657 98.216 896.081 207.518 896.081Z" fill="black" fill-opacity="0.01"/>
</g>
<g filter="url(#filter1_d)">
<path fill-rule="evenodd" clip-rule="evenodd" d="M208.17 893.324C313.852 893.324 399.523 890.585 399.523 887.206C399.523 883.827 282.18 882.296 208.17 882.296C134.161 882.296 16.8167 883.827 16.8167 887.206C16.8167 890.585 102.489 893.324 208.17 893.324Z" fill="black" fill-opacity="0.01"/>
</g>
<g filter="url(#filter2_d)">
<path fill-rule="evenodd" clip-rule="evenodd" d="M207.073 890.42C305.514 890.42 385.317 889.051 385.317 887.361C385.317 885.672 276.012 884.906 207.073 884.906C138.134 884.906 28.8286 885.672 28.8286 887.361C28.8286 889.051 108.631 890.42 207.073 890.42Z" fill="black" fill-opacity="0.01"/>
</g>
<g filter="url(#filter3_ii)">
<path d="M77.4219 0L337.577 0C356.374 0 367.331 2.29899 378.776 8.94956C389.728 15.3139 398.503 24.8483 404.36 36.7486C410.481 49.1841 412.596 61.0892 412.596 81.5136V807.135C412.596 827.559 410.481 839.464 404.36 851.9C398.503 863.8 389.728 873.334 378.776 879.699C367.331 886.349 356.374 888.648 337.577 888.648H77.4219C58.6247 888.648 47.668 886.349 36.2233 879.699C25.2711 873.334 16.4962 863.8 10.639 851.9C4.51824 839.464 2.4024 827.559 2.4024 807.135V81.5136C2.4024 61.0892 4.51824 49.1841 10.639 36.7486C16.4962 24.8483 25.2711 15.3139 36.2233 8.94956C47.668 2.29899 58.6247 0 77.4219 0Z" fill="#CDC7DE"/>
</g>
<g filter="url(#filter4_d)">
<path d="M78.5739 10.4413L338.729 10.4413C356.215 10.4413 365.866 12.4513 375.939 18.3048C385.417 23.8126 392.985 32.0353 398.054 42.3341C403.441 53.2791 405.291 63.7654 405.291 82.7652V808.386C405.291 827.386 403.441 837.872 398.054 848.817C392.985 859.116 385.417 867.339 375.939 872.847C365.866 878.7 356.215 880.71 338.729 880.71H78.5739C61.0877 880.71 51.4369 878.7 41.3638 872.847C31.8855 867.339 24.318 859.116 19.2489 848.817C13.8618 837.872 12.012 827.386 12.012 808.386V82.7652C12.012 63.7654 13.8618 53.2791 19.2489 42.3341C24.318 32.0353 31.8855 23.8126 41.3638 18.3048C51.4369 12.4513 61.0877 10.4413 78.5739 10.4413Z" fill="url(#paint0_linear)"/>
</g>
<path d="M76.7475 13.0517L336.902 13.0517C353.784 13.0517 362.763 14.9355 372.118 20.3721C380.86 25.4517 387.823 33.0184 392.498 42.5165C397.502 52.6819 399.236 62.4373 399.236 80.7807V806.402C399.236 824.745 397.502 834.5 392.498 844.666C387.823 854.164 380.86 861.731 372.118 866.81C362.763 872.247 353.784 874.131 336.902 874.131H76.7475C59.8655 874.131 50.8873 872.247 41.5317 866.81C32.7904 861.731 25.8265 854.164 21.1516 844.666C16.1481 834.5 14.4144 824.745 14.4144 806.402V80.7807C14.4144 62.4373 16.1481 52.6819 21.1516 42.5165C25.8265 33.0184 32.7904 25.4517 41.5317 20.3721C50.8873 14.9355 59.8655 13.0517 76.7475 13.0517Z" fill="url(#paint1_linear)"/>
<path d="M76.7475 18.2724L336.902 18.2724C353.784 18.2724 362.763 20.1321 372.118 25.499C380.86 30.5136 387.823 37.9834 392.498 47.3598C397.502 57.3951 399.236 67.0255 399.236 85.134V801.462C399.236 819.571 397.502 829.201 392.498 839.236C387.823 848.613 380.86 856.083 372.118 861.097C362.763 866.464 353.784 868.324 336.902 868.324H76.7475C59.8655 868.324 50.8873 866.464 41.5317 861.097C32.7904 856.083 25.8265 848.613 21.1516 839.236C16.1481 829.201 14.4144 819.571 14.4144 801.462V85.134C14.4144 67.0255 16.1481 57.3951 21.1516 47.3598C25.8265 37.9834 32.7904 30.5136 41.5317 25.499C50.8873 20.1321 59.8655 18.2724 76.7475 18.2724Z" fill="black"/>
<g clip-path="url(#clip0)">
<g filter="url(#filter5_i)">
<path fill-rule="evenodd" clip-rule="evenodd" d="M200.518 888.517C203.94 888.517 211.008 888.517 214.459 888.517C214.483 888.517 214.507 888.517 214.53 888.517C215.394 888.523 215.306 889.045 214.442 889.045H200.536C199.671 889.045 199.583 888.523 200.447 888.517C200.471 888.517 200.494 888.517 200.518 888.517Z" fill="#464353"/>
</g>
</g>
<g filter="url(#filter6_i)">
<path fill-rule="evenodd" clip-rule="evenodd" d="M41.5316 867.437C32.7903 862.357 25.8264 854.791 21.1514 845.293C16.148 835.127 14.4142 825.372 14.4142 807.029V81.4075C14.4142 63.0641 16.148 53.3087 21.1514 43.1433C24.4522 36.4372 28.894 30.6938 34.2969 26.1089C34.6493 25.8098 20.266 37.8258 20.266 72.2177C20.266 241.527 20.266 808.662 20.266 816.218C20.266 857.049 43.086 868.34 41.5316 867.437Z" fill="white" fill-opacity="0.8"/>
</g>
<g filter="url(#filter7_i)">
<path fill-rule="evenodd" clip-rule="evenodd" d="M371.678 867.437C380.419 862.357 387.383 854.791 392.058 845.293C397.061 835.127 398.795 825.372 398.795 807.029V81.4075C398.795 63.0641 397.061 53.3087 392.058 43.1433C388.757 36.4372 384.315 30.6938 378.912 26.1089C378.56 25.8098 392.943 37.8258 392.943 72.2177C392.943 241.527 392.943 808.662 392.943 816.218C392.943 857.049 370.123 868.34 371.678 867.437Z" fill="white" fill-opacity="0.8"/>
</g>
<rect opacity="0.602808" x="2.40259" y="86.1413" width="8.45761" height="8.73027" fill="#CCC3D6"/>
<rect opacity="0.602808" x="403.6" y="86.1413" width="8.45758" height="8.73027" fill="#CCC3D6"/>
<rect opacity="0.602808" x="2.4024" y="790.934" width="8.45761" height="8.73022" fill="#CCC3D6"/>
<rect opacity="0.602808" x="403.6" y="790.934" width="8.45758" height="8.73022" fill="#CCC3D6"/>
<g filter="url(#filter8_ii)">
<path fill-rule="evenodd" clip-rule="evenodd" d="M121.894 182.076C121.4 182.076 121 182.479 121 182.975V194.026C121 194.523 121.4 194.926 121.894 194.926H122.404C122.404 194.25 122.413 182.736 122.404 182.076H121.894Z" fill="url(#paint2_linear)"/>
</g>
<g filter="url(#filter9_ii)">
<path fill-rule="evenodd" clip-rule="evenodd" d="M121.894 205.076C121.603 205.146 121.255 205.327 121.069 205.583C121.03 205.635 121 205.802 121 205.851C121 208.272 121 215.648 121 227.979C121 228.03 121.043 228.29 121.069 228.353C121.219 228.717 121.481 228.805 121.894 229.015H122.404C122.404 228.353 122.413 205.724 122.404 205.076H121.894Z" fill="url(#paint3_linear)"/>
</g>
<g filter="url(#filter10_ii)">
<path fill-rule="evenodd" clip-rule="evenodd" d="M121.894 235.076C121.603 235.146 121.255 235.327 121.069 235.583C121.03 235.635 121 235.802 121 235.851C121 238.272 121 245.648 121 257.979C121 258.03 121.043 258.29 121.069 258.353C121.219 258.717 121.481 258.805 121.894 259.015H122.404C122.404 258.353 122.413 235.724 122.404 235.076H121.894Z" fill="url(#paint4_linear)"/>
</g>
<g filter="url(#filter11_ii)">
<path fill-rule="evenodd" clip-rule="evenodd" d="M292.106 213.076C292.397 213.146 292.745 213.324 292.931 213.578C292.97 213.63 293 213.795 293 213.843C293 216.24 293 237.512 293 249.719C293 249.77 292.957 250.028 292.931 250.09C292.781 250.45 292.519 250.537 292.106 250.745H291.596C291.596 250.089 291.587 213.717 291.596 213.076H292.106Z" fill="url(#paint5_linear)"/>
<path fill-rule="evenodd" clip-rule="evenodd" d="M292.106 213.076C292.397 213.146 292.745 213.324 292.931 213.578C292.97 213.63 293 213.795 293 213.843C293 216.24 293 237.512 293 249.719C293 249.77 292.957 250.028 292.931 250.09C292.781 250.45 292.519 250.537 292.106 250.745H291.596C291.596 250.089 291.587 213.717 291.596 213.076H292.106Z" fill="url(#paint6_linear)" fill-opacity="0.4"/>
</g>
<g opacity="0.801364" clip-path="url(#clip1)">
<rect x="182.581" y="36.5448" width="47.3626" height="8.27077" rx="4.13539" fill="#1D1C1C"/>
<mask id="mask0" mask-type="alpha" maskUnits="userSpaceOnUse" x="182" y="36" width="48" height="9">
<rect x="182.581" y="36.5448" width="47.3626" height="8.27077" rx="4.13539" fill="white"/>
</mask>
<g mask="url(#mask0)">
<path fill-rule="evenodd" clip-rule="evenodd" d="M182.581 36.5448H229.944V36.9801H182.581V36.5448ZM229.944 39.1551H182.581V39.5905H229.944V39.1551ZM182.581 41.7655H229.944V42.2008H182.581V41.7655ZM229.944 44.3758H182.581V44.8111H229.944V44.3758Z" fill="black" fill-opacity="0.15"/>
<path fill-rule="evenodd" clip-rule="evenodd" d="M182.581 39.1552H229.944V39.5905H182.581V39.1552ZM229.944 41.7655H182.581V42.2008H229.944V41.7655ZM182.581 44.3758H229.944V44.8111H182.581V44.3758ZM229.944 46.9862H182.581V47.4215H229.944V46.9862Z" fill="white" fill-opacity="0.03"/>
<path fill-rule="evenodd" clip-rule="evenodd" d="M182.581 36.5448H182.987V44.4847H182.581V36.5448ZM185.389 36.5448H184.983V44.4847H185.389V36.5448ZM187.386 36.5448H187.792V44.4847H187.386V36.5448ZM189.788 36.5448H190.194V44.4847H189.788V36.5448ZM192.19 36.5448H192.596V44.4847H192.19V36.5448ZM194.999 36.5448H194.593V44.4847H194.999V36.5448ZM197.401 36.5448H196.995V44.4847H197.401V36.5448ZM199.398 36.5448H199.804V44.4847H199.398V36.5448ZM201.8 36.5448H202.206V44.4847H201.8V36.5448ZM204.202 36.5448H204.608V44.4847H204.202V36.5448ZM207.011 36.5448H206.605V44.4847H207.011V36.5448ZM209.413 36.5448H209.007V44.4847H209.413V36.5448ZM211.409 36.5448H211.815V44.4847H211.409V36.5448ZM213.812 36.5448H214.218V44.4847H213.812V36.5448ZM216.62 36.5448H216.214V44.4847H216.62V36.5448ZM219.023 36.5448H218.617V44.4847H219.023V36.5448ZM221.019 36.5448H221.425V44.4847H221.019V36.5448ZM223.421 36.5448H223.827V44.4847H223.421V36.5448ZM225.824 36.5448H226.23V44.4847H225.824V36.5448ZM228.632 36.5448H228.226V44.4847H228.632V36.5448Z" fill="black" fill-opacity="0.15"/>
<path fill-rule="evenodd" clip-rule="evenodd" d="M182.581 36.5467H182.987V44.4866H182.581V36.5467ZM185.389 36.5448H184.983V44.4847H185.389V36.5448ZM187.386 36.5448H187.792V44.4847H187.386V36.5448ZM189.788 36.5448H190.194V44.4847H189.788V36.5448ZM192.19 36.5448H192.596V44.4847H192.19V36.5448ZM194.999 36.5448H194.593V44.4847H194.999V36.5448ZM197.401 36.5448H196.995V44.4847H197.401V36.5448ZM199.398 36.5448H199.804V44.4847H199.398V36.5448ZM201.8 36.5448H202.206V44.4847H201.8V36.5448ZM204.202 36.5448H204.608V44.4847H204.202V36.5448ZM207.011 36.5448H206.605V44.4847H207.011V36.5448ZM209.413 36.5448H209.007V44.4847H209.413V36.5448ZM211.409 36.5448H211.815V44.4847H211.409V36.5448ZM213.812 36.5448H214.218V44.4847H213.812V36.5448ZM216.62 36.5448H216.214V44.4847H216.62V36.5448ZM219.023 36.5448H218.617V44.4847H219.023V36.5448ZM221.019 36.5448H221.425V44.4847H221.019V36.5448ZM223.421 36.5448H223.827V44.4847H223.421V36.5448ZM225.824 36.5448H226.23V44.4847H225.824V36.5448ZM228.632 36.5448H228.226V44.4847H228.632V36.5448Z" fill="white" fill-opacity="0.03"/>
</g>
<g opacity="0.244441" filter="url(#filter12_iii)">
<rect x="182.581" y="36.5448" width="47.3626" height="8.27077" rx="4.13539" fill="black" fill-opacity="0.01"/>
</g>
<mask id="mask1" mask-type="alpha" maskUnits="userSpaceOnUse" x="182" y="36" width="48" height="9">
<rect x="182.581" y="36.5448" width="47.3626" height="8.27077" rx="4.13539" fill="white"/>
</mask>
<g mask="url(#mask1)">
</g>
</g>
<g clip-path="url(#clip2)">
<path fill-rule="evenodd" clip-rule="evenodd" d="M247.926 45.4216C250.846 45.4216 253.212 42.8501 253.212 39.678C253.212 36.5059 250.846 33.9344 247.926 33.9344C245.007 33.9344 242.641 36.5059 242.641 39.678C242.641 42.8501 245.007 45.4216 247.926 45.4216Z" fill="url(#paint7_radial)"/>
<g opacity="0.387535" filter="url(#filter13_dd)">
<path fill-rule="evenodd" clip-rule="evenodd" d="M248.214 43.4371C249.966 43.4371 251.386 41.8942 251.386 39.991C251.386 38.0877 249.966 36.5448 248.214 36.5448C246.463 36.5448 245.043 38.0877 245.043 39.991C245.043 41.8942 246.463 43.4371 248.214 43.4371Z" fill="url(#paint8_radial)"/>
</g>
<mask id="mask2" mask-type="alpha" maskUnits="userSpaceOnUse" x="245" y="36" width="7" height="8">
<path fill-rule="evenodd" clip-rule="evenodd" d="M248.214 43.4371C249.966 43.4371 251.386 41.8942 251.386 39.991C251.386 38.0877 249.966 36.5448 248.214 36.5448C246.463 36.5448 245.043 38.0877 245.043 39.991C245.043 41.8942 246.463 43.4371 248.214 43.4371Z" fill="white"/>
</mask>
<g mask="url(#mask2)">
<g filter="url(#filter14_f)">
<path fill-rule="evenodd" clip-rule="evenodd" d="M247.411 39.8717C247.524 39.4177 247.848 39.0585 247.605 38.9979C247.362 38.9373 247.304 38.9393 246.948 39.8023C246.591 40.6654 246.998 41.0235 247.241 41.0841C247.484 41.1447 247.297 40.3257 247.411 39.8717Z" fill="#3E89CC"/>
</g>
<g filter="url(#filter15_f)">
<path fill-rule="evenodd" clip-rule="evenodd" d="M249.348 41.5992C250.399 41.5992 251.251 40.4677 251.251 39.072C251.251 37.6763 250.399 36.5448 249.348 36.5448C248.297 36.5448 247.445 37.6763 247.445 39.072C247.445 40.4677 248.297 41.5992 249.348 41.5992Z" fill="#1C5894"/>
</g>
<g filter="url(#filter16_f)">
<path fill-rule="evenodd" clip-rule="evenodd" d="M248.734 44.9175C250.193 44.4628 251.142 43.2043 250.852 42.1066C250.562 41.0089 249.144 40.4876 247.685 40.9423C246.226 41.3969 245.278 42.6554 245.567 43.7531C245.857 44.8508 247.275 45.3721 248.734 44.9175Z" fill="#0A152B"/>
</g>
</g>
</g>
<rect x="20" y="120" width="373" height="680" fill="#5DC090"/>
<rect x="45" y="432" width="330" height="50" rx="20" fill="white"/>
<path d="M161.63 459.918C162.293 460.077 162.792 460.361 163.128 460.772C163.473 461.173 163.646 461.691 163.646 462.326C163.646 463.175 163.333 463.833 162.708 464.3C162.092 464.767 161.191 465 160.006 465H155.526V455.2H159.74C160.813 455.2 161.649 455.419 162.246 455.858C162.853 456.287 163.156 456.908 163.156 457.72C163.156 458.252 163.021 458.705 162.75 459.078C162.489 459.451 162.115 459.731 161.63 459.918ZM156.912 459.512H159.642C160.323 459.512 160.841 459.377 161.196 459.106C161.56 458.835 161.742 458.439 161.742 457.916C161.742 457.393 161.56 456.997 161.196 456.726C160.832 456.446 160.314 456.306 159.642 456.306H156.912V459.512ZM159.978 463.894C161.481 463.894 162.232 463.334 162.232 462.214C162.232 461.654 162.041 461.243 161.658 460.982C161.285 460.711 160.725 460.576 159.978 460.576H156.912V463.894H159.978ZM170.815 461.15C171.776 461.393 172.257 461.995 172.257 462.956C172.257 463.609 172.01 464.113 171.515 464.468C171.03 464.823 170.302 465 169.331 465H165.761V457.58H169.205C170.082 457.58 170.768 457.748 171.263 458.084C171.758 458.411 172.005 458.877 172.005 459.484C172.005 459.876 171.898 460.217 171.683 460.506C171.478 460.786 171.188 461.001 170.815 461.15ZM167.077 460.772H169.093C169.606 460.772 169.994 460.679 170.255 460.492C170.526 460.305 170.661 460.035 170.661 459.68C170.661 458.971 170.138 458.616 169.093 458.616H167.077V460.772ZM169.233 463.964C169.793 463.964 170.213 463.875 170.493 463.698C170.773 463.521 170.913 463.245 170.913 462.872C170.913 462.489 170.782 462.205 170.521 462.018C170.269 461.831 169.868 461.738 169.317 461.738H167.077V463.964H169.233ZM181.067 461.332C181.067 461.435 181.057 461.57 181.039 461.738H175.019C175.103 462.391 175.387 462.919 175.873 463.32C176.367 463.712 176.979 463.908 177.707 463.908C178.593 463.908 179.307 463.609 179.849 463.012L180.591 463.88C180.255 464.272 179.835 464.571 179.331 464.776C178.836 464.981 178.281 465.084 177.665 465.084C176.881 465.084 176.185 464.925 175.579 464.608C174.972 464.281 174.501 463.829 174.165 463.25C173.838 462.671 173.675 462.018 173.675 461.29C173.675 460.571 173.833 459.923 174.151 459.344C174.477 458.765 174.921 458.317 175.481 458C176.05 457.673 176.689 457.51 177.399 457.51C178.108 457.51 178.738 457.673 179.289 458C179.849 458.317 180.283 458.765 180.591 459.344C180.908 459.923 181.067 460.585 181.067 461.332ZM177.399 458.644C176.755 458.644 176.213 458.84 175.775 459.232C175.345 459.624 175.093 460.137 175.019 460.772H179.779C179.704 460.147 179.447 459.638 179.009 459.246C178.579 458.845 178.043 458.644 177.399 458.644ZM190.575 463.824V466.722H189.315V465H183.113V466.722H181.839V463.824H182.231C182.707 463.796 183.033 463.46 183.211 462.816C183.388 462.172 183.509 461.262 183.575 460.086L183.687 457.58H189.441V463.824H190.575ZM184.807 460.184C184.769 461.117 184.69 461.892 184.569 462.508C184.457 463.115 184.247 463.553 183.939 463.824H188.097V458.756H184.877L184.807 460.184ZM192.325 457.58H193.669V462.984L198.219 457.58H199.437V465H198.093V459.596L193.557 465H192.325V457.58ZM207.576 458.756H204.86V465H203.516V458.756H200.8V457.58H207.576V458.756ZM215.328 461.332C215.328 461.435 215.319 461.57 215.3 461.738H209.28C209.364 462.391 209.649 462.919 210.134 463.32C210.629 463.712 211.24 463.908 211.968 463.908C212.855 463.908 213.569 463.609 214.11 463.012L214.852 463.88C214.516 464.272 214.096 464.571 213.592 464.776C213.098 464.981 212.542 465.084 211.926 465.084C211.142 465.084 210.447 464.925 209.84 464.608C209.234 464.281 208.762 463.829 208.426 463.25C208.1 462.671 207.936 462.018 207.936 461.29C207.936 460.571 208.095 459.923 208.412 459.344C208.739 458.765 209.182 458.317 209.742 458C210.312 457.673 210.951 457.51 211.66 457.51C212.37 457.51 213 457.673 213.55 458C214.11 458.317 214.544 458.765 214.852 459.344C215.17 459.923 215.328 460.585 215.328 461.332ZM211.66 458.644C211.016 458.644 210.475 458.84 210.036 459.232C209.607 459.624 209.355 460.137 209.28 460.772H214.04C213.966 460.147 213.709 459.638 213.27 459.246C212.841 458.845 212.304 458.644 211.66 458.644ZM227.851 461.332C227.851 461.435 227.842 461.57 227.823 461.738H221.803C221.887 462.391 222.172 462.919 222.657 463.32C223.152 463.712 223.763 463.908 224.491 463.908C225.378 463.908 226.092 463.609 226.633 463.012L227.375 463.88C227.039 464.272 226.619 464.571 226.115 464.776C225.62 464.981 225.065 465.084 224.449 465.084C223.665 465.084 222.97 464.925 222.363 464.608C221.756 464.281 221.285 463.829 220.949 463.25C220.622 462.671 220.459 462.018 220.459 461.29C220.459 460.571 220.618 459.923 220.935 459.344C221.262 458.765 221.705 458.317 222.265 458C222.834 457.673 223.474 457.51 224.183 457.51C224.892 457.51 225.522 457.673 226.073 458C226.633 458.317 227.067 458.765 227.375 459.344C227.692 459.923 227.851 460.585 227.851 461.332ZM224.183 458.644C223.539 458.644 222.998 458.84 222.559 459.232C222.13 459.624 221.878 460.137 221.803 460.772H226.563C226.488 460.147 226.232 459.638 225.793 459.246C225.364 458.845 224.827 458.644 224.183 458.644ZM229.378 460.576H233.144V461.738H229.378V460.576ZM244.495 457.51C245.429 457.51 246.166 457.781 246.707 458.322C247.258 458.863 247.533 459.666 247.533 460.73V465H246.189V460.884C246.189 460.165 246.021 459.624 245.685 459.26C245.359 458.896 244.887 458.714 244.271 458.714C243.59 458.714 243.049 458.929 242.647 459.358C242.246 459.778 242.045 460.385 242.045 461.178V465H240.701V460.884C240.701 460.165 240.533 459.624 240.197 459.26C239.871 458.896 239.399 458.714 238.783 458.714C238.102 458.714 237.561 458.929 237.159 459.358C236.758 459.778 236.557 460.385 236.557 461.178V465H235.213V457.58H236.501V458.686C236.772 458.303 237.127 458.014 237.565 457.818C238.004 457.613 238.503 457.51 239.063 457.51C239.642 457.51 240.155 457.627 240.603 457.86C241.051 458.093 241.397 458.434 241.639 458.882C241.919 458.453 242.307 458.117 242.801 457.874C243.305 457.631 243.87 457.51 244.495 457.51ZM252.708 457.51C253.735 457.51 254.519 457.762 255.06 458.266C255.611 458.77 255.886 459.521 255.886 460.52V465H254.612V464.02C254.388 464.365 254.066 464.631 253.646 464.818C253.236 464.995 252.746 465.084 252.176 465.084C251.346 465.084 250.678 464.883 250.174 464.482C249.68 464.081 249.432 463.553 249.432 462.9C249.432 462.247 249.67 461.724 250.146 461.332C250.622 460.931 251.378 460.73 252.414 460.73H254.542V460.464C254.542 459.885 254.374 459.442 254.038 459.134C253.702 458.826 253.208 458.672 252.554 458.672C252.116 458.672 251.686 458.747 251.266 458.896C250.846 459.036 250.492 459.227 250.202 459.47L249.642 458.462C250.025 458.154 250.482 457.921 251.014 457.762C251.546 457.594 252.111 457.51 252.708 457.51ZM252.4 464.048C252.914 464.048 253.357 463.936 253.73 463.712C254.104 463.479 254.374 463.152 254.542 462.732V461.696H252.47C251.332 461.696 250.762 462.079 250.762 462.844C250.762 463.217 250.907 463.511 251.196 463.726C251.486 463.941 251.887 464.048 252.4 464.048ZM258.374 457.58H259.718V465H258.374V457.58ZM259.046 456.152C258.784 456.152 258.565 456.068 258.388 455.9C258.22 455.732 258.136 455.527 258.136 455.284C258.136 455.041 258.22 454.836 258.388 454.668C258.565 454.491 258.784 454.402 259.046 454.402C259.307 454.402 259.522 454.486 259.69 454.654C259.867 454.813 259.956 455.013 259.956 455.256C259.956 455.508 259.867 455.723 259.69 455.9C259.522 456.068 259.307 456.152 259.046 456.152ZM262.284 454.612H263.628V465H262.284V454.612Z" fill="black" fill-opacity="0.62"/>
<rect x="45" y="532" width="330" height="50" rx="20" fill="white"/>
<path d="M169 245C169 243.895 169.895 243 171 243H247C248.105 243 249 243.895 249 245V283C249 305.091 231.091 323 209 323C186.909 323 169 305.091 169 283V245Z" fill="url(#paint9_linear)"/>
<path d="M193.15 262H209.05C212.85 262 216.2 262.733 219.1 264.2C222.033 265.633 224.3 267.667 225.9 270.3C227.533 272.933 228.35 276 228.35 279.5C228.35 283 227.533 286.067 225.9 288.7C224.3 291.333 222.033 293.383 219.1 294.85C216.2 296.283 212.85 297 209.05 297H193.15V262ZM208.65 290.35C212.15 290.35 214.933 289.383 217 287.45C219.1 285.483 220.15 282.833 220.15 279.5C220.15 276.167 219.1 273.533 217 271.6C214.933 269.633 212.15 268.65 208.65 268.65H201.25V290.35H208.65Z" fill="white"/>
<rect x="189" y="276" width="41" height="7" fill="url(#paint10_linear)"/>
<path d="M213.227 275.569C213.188 275.411 213.099 275.27 212.973 275.168C212.847 275.065 212.691 275.007 212.529 275.001C212.367 274.994 212.207 275.041 212.073 275.134C211.94 275.226 211.84 275.36 211.789 275.514L209.399 282.679L207.185 277.696C207.125 277.562 207.027 277.448 206.902 277.369C206.778 277.291 206.633 277.25 206.486 277.253C206.339 277.255 206.195 277.301 206.074 277.385C205.953 277.468 205.859 277.585 205.803 277.722L204.492 281.001H202V282.501H204.492C205.109 282.501 205.656 282.13 205.884 281.558L206.536 279.929L208.814 285.055C208.935 285.328 209.205 285.501 209.5 285.501L209.536 285.5C209.687 285.493 209.832 285.44 209.953 285.349C210.073 285.257 210.163 285.132 210.211 284.988L212.397 278.431L213.131 281.365C213.211 281.69 213.398 281.978 213.662 282.184C213.926 282.39 214.251 282.502 214.586 282.501H217V281.001H214.585L213.227 275.569Z" fill="white"/>
<path d="M115 623C115 621.343 116.343 620 118 620H302C303.657 620 305 621.343 305 623V657C305 658.657 303.657 660 302 660H118C116.343 660 115 658.657 115 657V623Z" fill="url(#paint11_linear)"/>
<path d="M184.81 639.466C185.662 639.67 186.304 640.036 186.736 640.564C187.18 641.08 187.402 641.746 187.402 642.562C187.402 643.654 187 644.5 186.196 645.1C185.404 645.7 184.246 646 182.722 646H176.962V633.4H182.38C183.76 633.4 184.834 633.682 185.602 634.246C186.382 634.798 186.772 635.596 186.772 636.64C186.772 637.324 186.598 637.906 186.25 638.386C185.914 638.866 185.434 639.226 184.81 639.466ZM178.744 638.944H182.254C183.13 638.944 183.796 638.77 184.252 638.422C184.72 638.074 184.954 637.564 184.954 636.892C184.954 636.22 184.72 635.71 184.252 635.362C183.784 635.002 183.118 634.822 182.254 634.822H178.744V638.944ZM182.686 644.578C184.618 644.578 185.584 643.858 185.584 642.418C185.584 641.698 185.338 641.17 184.846 640.834C184.366 640.486 183.646 640.312 182.686 640.312H178.744V644.578H182.686ZM196.079 646.144C194.807 646.144 193.661 645.868 192.641 645.316C191.621 644.752 190.817 643.978 190.229 642.994C189.653 642.01 189.365 640.912 189.365 639.7C189.365 638.488 189.653 637.39 190.229 636.406C190.817 635.422 191.621 634.654 192.641 634.102C193.661 633.538 194.807 633.256 196.079 633.256C197.339 633.256 198.479 633.538 199.499 634.102C200.519 634.654 201.317 635.422 201.893 636.406C202.469 637.378 202.757 638.476 202.757 639.7C202.757 640.924 202.469 642.028 201.893 643.012C201.317 643.984 200.519 644.752 199.499 645.316C198.479 645.868 197.339 646.144 196.079 646.144ZM196.079 644.542C197.003 644.542 197.831 644.332 198.563 643.912C199.307 643.492 199.889 642.916 200.309 642.184C200.741 641.44 200.957 640.612 200.957 639.7C200.957 638.788 200.741 637.966 200.309 637.234C199.889 636.49 199.307 635.908 198.563 635.488C197.831 635.068 197.003 634.858 196.079 634.858C195.155 634.858 194.315 635.068 193.559 635.488C192.815 635.908 192.227 636.49 191.795 637.234C191.375 637.966 191.165 638.788 191.165 639.7C191.165 640.612 191.375 641.44 191.795 642.184C192.227 642.916 192.815 643.492 193.559 643.912C194.315 644.332 195.155 644.542 196.079 644.542ZM205.667 633.4H207.449V643.12L214.901 633.4H216.557V646H214.793V636.298L207.323 646H205.667V633.4ZM211.085 632.518C210.101 632.518 209.339 632.308 208.799 631.888C208.271 631.456 208.001 630.844 207.989 630.052H209.267C209.279 630.52 209.441 630.886 209.753 631.15C210.077 631.402 210.521 631.528 211.085 631.528C211.625 631.528 212.057 631.402 212.381 631.15C212.717 630.886 212.891 630.52 212.903 630.052H214.163C214.151 630.832 213.875 631.438 213.335 631.87C212.807 632.302 212.057 632.518 211.085 632.518ZM229.143 634.966H224.823V646H223.059V634.966H218.757V633.4H229.143V634.966ZM231.331 633.4H233.113V643.12L240.565 633.4H242.221V646H240.457V636.298L232.987 646H231.331V633.4Z" fill="white"/>
<path d="M122.848 392.232V399.384H118.504V396H107.752V399.384H103.384V392.232H103.984C104.976 392.216 105.672 391.536 106.072 390.192C106.488 388.848 106.744 386.912 106.84 384.384L107.032 379.2H120.568V392.232H122.848ZM110.992 384.792C110.928 386.584 110.784 388.104 110.56 389.352C110.336 390.6 109.992 391.56 109.528 392.232H115.888V382.968H111.064L110.992 384.792ZM125.12 379.2H129.8V389.064L136.736 379.2H141.2V396H136.52V386.16L129.608 396H125.12V379.2ZM156.4 392.736H149.296L147.976 396H143.128L150.544 379.2H155.224L162.664 396H157.72L156.4 392.736ZM155.008 389.232L152.848 383.856L150.688 389.232H155.008ZM192.261 387.552C192.261 389.744 191.509 391.488 190.005 392.784C188.517 394.064 186.357 394.784 183.525 394.944V396.792H179.181V394.944C176.349 394.736 174.181 394 172.677 392.736C171.189 391.472 170.445 389.744 170.445 387.552C170.445 385.36 171.189 383.632 172.677 382.368C174.165 381.088 176.333 380.344 179.181 380.136V378.408H183.525V380.136C186.357 380.328 188.517 381.064 190.005 382.344C191.509 383.608 192.261 385.344 192.261 387.552ZM183.525 391.248C184.949 391.088 185.989 390.704 186.645 390.096C187.317 389.488 187.653 388.632 187.653 387.528C187.653 386.424 187.309 385.576 186.621 384.984C185.949 384.392 184.917 384.016 183.525 383.856V391.248ZM175.053 387.552C175.053 388.64 175.397 389.48 176.085 390.072C176.773 390.664 177.805 391.048 179.181 391.224V383.856C177.741 384.016 176.693 384.392 176.037 384.984C175.381 385.576 175.053 386.432 175.053 387.552ZM202.986 396.336C201.21 396.336 199.61 395.96 198.186 395.208C196.778 394.456 195.666 393.416 194.85 392.088C194.05 390.76 193.65 389.264 193.65 387.6C193.65 385.936 194.05 384.44 194.85 383.112C195.666 381.784 196.778 380.744 198.186 379.992C199.61 379.24 201.21 378.864 202.986 378.864C204.762 378.864 206.354 379.24 207.762 379.992C209.186 380.744 210.298 381.784 211.098 383.112C211.914 384.44 212.322 385.936 212.322 387.6C212.322 389.264 211.914 390.76 211.098 392.088C210.298 393.416 209.186 394.456 207.762 395.208C206.354 395.96 204.762 396.336 202.986 396.336ZM202.986 392.4C203.834 392.4 204.602 392.2 205.29 391.8C205.978 391.4 206.522 390.84 206.922 390.12C207.322 389.384 207.522 388.544 207.522 387.6C207.522 386.656 207.322 385.824 206.922 385.104C206.522 384.368 205.978 383.8 205.29 383.4C204.602 383 203.834 382.8 202.986 382.8C202.138 382.8 201.37 383 200.682 383.4C199.994 383.8 199.45 384.368 199.05 385.104C198.65 385.824 198.45 386.656 198.45 387.6C198.45 388.544 198.65 389.384 199.05 390.12C199.45 390.84 199.994 391.4 200.682 391.8C201.37 392.2 202.138 392.4 202.986 392.4ZM222.543 379.2C224.063 379.2 225.383 379.456 226.503 379.968C227.623 380.464 228.487 381.184 229.095 382.128C229.703 383.056 230.007 384.152 230.007 385.416C230.007 386.68 229.703 387.776 229.095 388.704C228.487 389.632 227.623 390.352 226.503 390.864C225.383 391.36 224.063 391.608 222.543 391.608H219.615V396H214.863V379.2H222.543ZM222.255 387.864C223.231 387.864 223.967 387.656 224.463 387.24C224.959 386.808 225.207 386.2 225.207 385.416C225.207 384.632 224.959 384.024 224.463 383.592C223.967 383.16 223.231 382.944 222.255 382.944H219.615V387.864H222.255ZM247.303 396L247.279 387.096L242.959 394.344H240.847L236.527 387.288V396H232.159V379.2H236.071L241.975 388.896L247.735 379.2H251.647L251.695 396H247.303ZM271.229 379.2L264.269 392.184C263.533 393.576 262.629 394.632 261.557 395.352C260.501 396.072 259.341 396.432 258.077 396.432C257.149 396.432 256.157 396.224 255.101 395.808L256.229 392.304C256.885 392.496 257.445 392.592 257.909 392.592C258.373 392.592 258.781 392.488 259.133 392.28C259.501 392.072 259.837 391.744 260.141 391.296L253.613 379.2H258.629L262.541 387.312L266.597 379.2H271.229ZM288.097 379.2V396H283.417V382.968H278.593L278.497 385.704C278.417 388.104 278.217 390.056 277.897 391.56C277.593 393.064 277.065 394.232 276.313 395.064C275.561 395.88 274.497 396.288 273.121 396.288C272.481 396.288 271.761 396.192 270.961 396L271.225 392.112C271.433 392.16 271.649 392.184 271.873 392.184C272.497 392.184 272.977 391.936 273.313 391.44C273.649 390.944 273.889 390.256 274.033 389.376C274.177 388.48 274.273 387.32 274.321 385.896L274.561 379.2H288.097ZM303.283 392.736H296.179L294.859 396H290.011L297.427 379.2H302.107L309.547 396H304.603L303.283 392.736ZM301.891 389.232L299.731 383.856L297.571 389.232H301.891Z" fill="white"/>
<defs>
<filter id="filter0_d" x="3.62469" y="876.663" width="407.786" height="25.7544" filterUnits="userSpaceOnUse" color-interpolation-filters="sRGB">
<feFlood flood-opacity="0" result="BackgroundImageFix"/>
<feColorMatrix in="SourceAlpha" type="matrix" values="0 0 0 0 0 0 0 0 0 0 0 0 0 0 0 0 0 0 127 0"/>
<feOffset dy="0.352051"/>
<feGaussianBlur stdDeviation="2.99244"/>
<feColorMatrix type="matrix" values="0 0 0 0 0 0 0 0 0 0 0 0 0 0 0 0 0 0 0.12 0"/>
<feBlend mode="normal" in2="BackgroundImageFix" result="effect1_dropShadow"/>
<feBlend mode="normal" in="SourceGraphic" in2="effect1_dropShadow" result="shape"/>
</filter>
<filter id="filter1_d" x="14.3524" y="880.184" width="387.636" height="15.9564" filterUnits="userSpaceOnUse" color-interpolation-filters="sRGB">
<feFlood flood-opacity="0" result="BackgroundImageFix"/>
<feColorMatrix in="SourceAlpha" type="matrix" values="0 0 0 0 0 0 0 0 0 0 0 0 0 0 0 0 0 0 127 0"/>
<feOffset dy="0.352051"/>
<feGaussianBlur stdDeviation="1.23218"/>
<feColorMatrix type="matrix" values="0 0 0 0 0 0 0 0 0 0 0 0 0 0 0 0 0 0 0.08 0"/>
<feBlend mode="normal" in2="BackgroundImageFix" result="effect1_dropShadow"/>
<feBlend mode="normal" in="SourceGraphic" in2="effect1_dropShadow" result="shape"/>
</filter>
<filter id="filter2_d" x="27.2444" y="883.674" width="359.657" height="8.68226" filterUnits="userSpaceOnUse" color-interpolation-filters="sRGB">
<feFlood flood-opacity="0" result="BackgroundImageFix"/>
<feColorMatrix in="SourceAlpha" type="matrix" values="0 0 0 0 0 0 0 0 0 0 0 0 0 0 0 0 0 0 127 0"/>
<feOffset dy="0.352051"/>
<feGaussianBlur stdDeviation="0.792115"/>
<feColorMatrix type="matrix" values="0 0 0 0 0 0 0 0 0 0 0 0 0 0 0 0 0 0 0.24 0"/>
<feBlend mode="normal" in2="BackgroundImageFix" result="effect1_dropShadow"/>
<feBlend mode="normal" in="SourceGraphic" in2="effect1_dropShadow" result="shape"/>
</filter>
<filter id="filter3_ii" x="2.4024" y="0" width="410.194" height="888.648" filterUnits="userSpaceOnUse" color-interpolation-filters="sRGB">
<feFlood flood-opacity="0" result="BackgroundImageFix"/>
<feBlend mode="normal" in="SourceGraphic" in2="BackgroundImageFix" result="shape"/>
<feColorMatrix in="SourceAlpha" type="matrix" values="0 0 0 0 0 0 0 0 0 0 0 0 0 0 0 0 0 0 127 0" result="hardAlpha"/>
<feOffset/>
<feGaussianBlur stdDeviation="1.76026"/>
<feComposite in2="hardAlpha" operator="arithmetic" k2="-1" k3="1"/>
<feColorMatrix type="matrix" values="0 0 0 0 0.425533 0 0 0 0 0.405063 0 0 0 0 0.511506 0 0 0 1 0"/>
<feBlend mode="normal" in2="shape" result="effect1_innerShadow"/>
<feColorMatrix in="SourceAlpha" type="matrix" values="0 0 0 0 0 0 0 0 0 0 0 0 0 0 0 0 0 0 127 0" result="hardAlpha"/>
<feOffset/>
<feGaussianBlur stdDeviation="0.704102"/>
<feComposite in2="hardAlpha" operator="arithmetic" k2="-1" k3="1"/>
<feColorMatrix type="matrix" values="0 0 0 0 0.30268 0 0 0 0 0.287942 0 0 0 0 0.358684 0 0 0 1 0"/>
<feBlend mode="normal" in2="effect1_innerShadow" result="effect2_innerShadow"/>
</filter>
<filter id="filter4_d" x="12.012" y="10.4413" width="393.279" height="870.269" filterUnits="userSpaceOnUse" color-interpolation-filters="sRGB">
<feFlood flood-opacity="0" result="BackgroundImageFix"/>
<feColorMatrix in="SourceAlpha" type="matrix" values="0 0 0 0 0 0 0 0 0 0 0 0 0 0 0 0 0 0 127 0"/>
<feOffset/>
<feColorMatrix type="matrix" values="0 0 0 0 0 0 0 0 0 0 0 0 0 0 0 0 0 0 0.198058 0"/>
<feBlend mode="normal" in2="BackgroundImageFix" result="effect1_dropShadow"/>
<feBlend mode="normal" in="SourceGraphic" in2="effect1_dropShadow" result="shape"/>
</filter>
<filter id="filter5_i" x="199.842" y="888.517" width="15.2942" height="0.704102" filterUnits="userSpaceOnUse" color-interpolation-filters="sRGB">
<feFlood flood-opacity="0" result="BackgroundImageFix"/>
<feBlend mode="normal" in="SourceGraphic" in2="BackgroundImageFix" result="shape"/>
<feColorMatrix in="SourceAlpha" type="matrix" values="0 0 0 0 0 0 0 0 0 0 0 0 0 0 0 0 0 0 127 0" result="hardAlpha"/>
<feOffset dy="0.176026"/>
<feGaussianBlur stdDeviation="0.176026"/>
<feComposite in2="hardAlpha" operator="arithmetic" k2="-1" k3="1"/>
<feColorMatrix type="matrix" values="0 0 0 0 0.615686 0 0 0 0 0.596078 0 0 0 0 0.682353 0 0 0 1 0"/>
<feBlend mode="normal" in2="shape" result="effect1_innerShadow"/>
</filter>
<filter id="filter6_i" x="13.5341" y="26.1035" width="28.0734" height="841.383" filterUnits="userSpaceOnUse" color-interpolation-filters="sRGB">
<feFlood flood-opacity="0" result="BackgroundImageFix"/>
<feBlend mode="normal" in="SourceGraphic" in2="BackgroundImageFix" result="shape"/>
<feColorMatrix in="SourceAlpha" type="matrix" values="0 0 0 0 0 0 0 0 0 0 0 0 0 0 0 0 0 0 127 0" result="hardAlpha"/>
<feOffset dx="-0.880128"/>
<feGaussianBlur stdDeviation="0.880128"/>
<feComposite in2="hardAlpha" operator="arithmetic" k2="-1" k3="1"/>
<feColorMatrix type="matrix" values="0 0 0 0 0 0 0 0 0 0 0 0 0 0 0 0 0 0 0.7012 0"/>
<feBlend mode="normal" in2="shape" result="effect1_innerShadow"/>
</filter>
<filter id="filter7_i" x="370.722" y="26.1035" width="28.0734" height="841.383" filterUnits="userSpaceOnUse" color-interpolation-filters="sRGB">
<feFlood flood-opacity="0" result="BackgroundImageFix"/>
<feBlend mode="normal" in="SourceGraphic" in2="BackgroundImageFix" result="shape"/>
<feColorMatrix in="SourceAlpha" type="matrix" values="0 0 0 0 0 0 0 0 0 0 0 0 0 0 0 0 0 0 127 0" result="hardAlpha"/>
<feOffset dx="-0.880128"/>
<feGaussianBlur stdDeviation="0.880128"/>
<feComposite in2="hardAlpha" operator="arithmetic" k2="-1" k3="1"/>
<feColorMatrix type="matrix" values="0 0 0 0 0 0 0 0 0 0 0 0 0 0 0 0 0 0 0.7012 0"/>
<feBlend mode="normal" in2="shape" result="effect1_innerShadow"/>
</filter>
<filter id="filter8_ii" x="121" y="181.724" width="1.4082" height="13.554" filterUnits="userSpaceOnUse" color-interpolation-filters="sRGB">
<feFlood flood-opacity="0" result="BackgroundImageFix"/>
<feBlend mode="normal" in="SourceGraphic" in2="BackgroundImageFix" result="shape"/>
<feColorMatrix in="SourceAlpha" type="matrix" values="0 0 0 0 0 0 0 0 0 0 0 0 0 0 0 0 0 0 127 0" result="hardAlpha"/>
<feOffset dy="0.880128"/>
<feGaussianBlur stdDeviation="0.176026"/>
<feComposite in2="hardAlpha" operator="arithmetic" k2="-1" k3="1"/>
<feColorMatrix type="matrix" values="0 0 0 0 0.380392 0 0 0 0 0.360784 0 0 0 0 0.439216 0 0 0 1 0"/>
<feBlend mode="normal" in2="shape" result="effect1_innerShadow"/>
<feColorMatrix in="SourceAlpha" type="matrix" values="0 0 0 0 0 0 0 0 0 0 0 0 0 0 0 0 0 0 127 0" result="hardAlpha"/>
<feOffset dy="-0.880128"/>
<feGaussianBlur stdDeviation="0.176026"/>
<feComposite in2="hardAlpha" operator="arithmetic" k2="-1" k3="1"/>
<feColorMatrix type="matrix" values="0 0 0 0 0.332492 0 0 0 0 0.314558 0 0 0 0 0.382706 0 0 0 1 0"/>
<feBlend mode="normal" in2="effect1_innerShadow" result="effect2_innerShadow"/>
</filter>
<filter id="filter9_ii" x="121" y="204.724" width="1.4082" height="24.6436" filterUnits="userSpaceOnUse" color-interpolation-filters="sRGB">
<feFlood flood-opacity="0" result="BackgroundImageFix"/>
<feBlend mode="normal" in="SourceGraphic" in2="BackgroundImageFix" result="shape"/>
<feColorMatrix in="SourceAlpha" type="matrix" values="0 0 0 0 0 0 0 0 0 0 0 0 0 0 0 0 0 0 127 0" result="hardAlpha"/>
<feOffset dy="0.880128"/>
<feGaussianBlur stdDeviation="0.176026"/>
<feComposite in2="hardAlpha" operator="arithmetic" k2="-1" k3="1"/>
<feColorMatrix type="matrix" values="0 0 0 0 0.380392 0 0 0 0 0.360784 0 0 0 0 0.439216 0 0 0 1 0"/>
<feBlend mode="normal" in2="shape" result="effect1_innerShadow"/>
<feColorMatrix in="SourceAlpha" type="matrix" values="0 0 0 0 0 0 0 0 0 0 0 0 0 0 0 0 0 0 127 0" result="hardAlpha"/>
<feOffset dy="-0.880128"/>
<feGaussianBlur stdDeviation="0.176026"/>
<feComposite in2="hardAlpha" operator="arithmetic" k2="-1" k3="1"/>
<feColorMatrix type="matrix" values="0 0 0 0 0.332492 0 0 0 0 0.314558 0 0 0 0 0.382706 0 0 0 1 0"/>
<feBlend mode="normal" in2="effect1_innerShadow" result="effect2_innerShadow"/>
</filter>
<filter id="filter10_ii" x="121" y="234.724" width="1.4082" height="24.6436" filterUnits="userSpaceOnUse" color-interpolation-filters="sRGB">
<feFlood flood-opacity="0" result="BackgroundImageFix"/>
<feBlend mode="normal" in="SourceGraphic" in2="BackgroundImageFix" result="shape"/>
<feColorMatrix in="SourceAlpha" type="matrix" values="0 0 0 0 0 0 0 0 0 0 0 0 0 0 0 0 0 0 127 0" result="hardAlpha"/>
<feOffset dy="0.880128"/>
<feGaussianBlur stdDeviation="0.176026"/>
<feComposite in2="hardAlpha" operator="arithmetic" k2="-1" k3="1"/>
<feColorMatrix type="matrix" values="0 0 0 0 0.380392 0 0 0 0 0.360784 0 0 0 0 0.439216 0 0 0 1 0"/>
<feBlend mode="normal" in2="shape" result="effect1_innerShadow"/>
<feColorMatrix in="SourceAlpha" type="matrix" values="0 0 0 0 0 0 0 0 0 0 0 0 0 0 0 0 0 0 127 0" result="hardAlpha"/>
<feOffset dy="-0.880128"/>
<feGaussianBlur stdDeviation="0.176026"/>
<feComposite in2="hardAlpha" operator="arithmetic" k2="-1" k3="1"/>
<feColorMatrix type="matrix" values="0 0 0 0 0.332492 0 0 0 0 0.314558 0 0 0 0 0.382706 0 0 0 1 0"/>
<feBlend mode="normal" in2="effect1_innerShadow" result="effect2_innerShadow"/>
</filter>
<filter id="filter11_ii" x="291.592" y="212.724" width="1.4082" height="38.3736" filterUnits="userSpaceOnUse" color-interpolation-filters="sRGB">
<feFlood flood-opacity="0" result="BackgroundImageFix"/>
<feBlend mode="normal" in="SourceGraphic" in2="BackgroundImageFix" result="shape"/>
<feColorMatrix in="SourceAlpha" type="matrix" values="0 0 0 0 0 0 0 0 0 0 0 0 0 0 0 0 0 0 127 0" result="hardAlpha"/>
<feOffset dy="0.880128"/>
<feGaussianBlur stdDeviation="0.176026"/>
<feComposite in2="hardAlpha" operator="arithmetic" k2="-1" k3="1"/>
<feColorMatrix type="matrix" values="0 0 0 0 0.372549 0 0 0 0 0.356863 0 0 0 0 0.435294 0 0 0 1 0"/>
<feBlend mode="normal" in2="shape" result="effect1_innerShadow"/>
<feColorMatrix in="SourceAlpha" type="matrix" values="0 0 0 0 0 0 0 0 0 0 0 0 0 0 0 0 0 0 127 0" result="hardAlpha"/>
<feOffset dy="-0.880128"/>
<feGaussianBlur stdDeviation="0.176026"/>
<feComposite in2="hardAlpha" operator="arithmetic" k2="-1" k3="1"/>
<feColorMatrix type="matrix" values="0 0 0 0 0.311532 0 0 0 0 0.296889 0 0 0 0 0.366443 0 0 0 1 0"/>
<feBlend mode="normal" in2="effect1_innerShadow" result="effect2_innerShadow"/>
</filter>
<filter id="filter12_iii" x="182.581" y="36.5448" width="47.3626" height="8.27077" filterUnits="userSpaceOnUse" color-interpolation-filters="sRGB">
<feFlood flood-opacity="0" result="BackgroundImageFix"/>
<feBlend mode="normal" in="SourceGraphic" in2="BackgroundImageFix" result="shape"/>
<feColorMatrix in="SourceAlpha" type="matrix" values="0 0 0 0 0 0 0 0 0 0 0 0 0 0 0 0 0 0 127 0" result="hardAlpha"/>
<feOffset/>
<feGaussianBlur stdDeviation="0.264038"/>
<feComposite in2="hardAlpha" operator="arithmetic" k2="-1" k3="1"/>
<feColorMatrix type="matrix" values="0 0 0 0 0 0 0 0 0 0 0 0 0 0 0 0 0 0 0.795035 0"/>
<feBlend mode="normal" in2="shape" result="effect1_innerShadow"/>
<feColorMatrix in="SourceAlpha" type="matrix" values="0 0 0 0 0 0 0 0 0 0 0 0 0 0 0 0 0 0 127 0" result="hardAlpha"/>
<feOffset dy="-0.528077"/>
<feComposite in2="hardAlpha" operator="arithmetic" k2="-1" k3="1"/>
<feColorMatrix type="matrix" values="0 0 0 0 0 0 0 0 0 0 0 0 0 0 0 0 0 0 0.80013 0"/>
<feBlend mode="normal" in2="effect1_innerShadow" result="effect2_innerShadow"/>
<feColorMatrix in="SourceAlpha" type="matrix" values="0 0 0 0 0 0 0 0 0 0 0 0 0 0 0 0 0 0 127 0" result="hardAlpha"/>
<feOffset dy="-0.352051"/>
<feComposite in2="hardAlpha" operator="arithmetic" k2="-1" k3="1"/>
<feColorMatrix type="matrix" values="0 0 0 0 1 0 0 0 0 1 0 0 0 0 1 0 0 0 0.197067 0"/>
<feBlend mode="normal" in2="effect2_innerShadow" result="effect3_innerShadow"/>
</filter>
<filter id="filter13_dd" x="244.339" y="35.8407" width="7.7514" height="8.30052" filterUnits="userSpaceOnUse" color-interpolation-filters="sRGB">
<feFlood flood-opacity="0" result="BackgroundImageFix"/>
<feColorMatrix in="SourceAlpha" type="matrix" values="0 0 0 0 0 0 0 0 0 0 0 0 0 0 0 0 0 0 127 0"/>
<feOffset/>
<feGaussianBlur stdDeviation="0.352051"/>
<feColorMatrix type="matrix" values="0 0 0 0 0 0 0 0 0 0 0 0 0 0 0 0 0 0 0.4 0"/>
<feBlend mode="normal" in2="BackgroundImageFix" result="effect1_dropShadow"/>
<feColorMatrix in="SourceAlpha" type="matrix" values="0 0 0 0 0 0 0 0 0 0 0 0 0 0 0 0 0 0 127 0"/>
<feOffset/>
<feColorMatrix type="matrix" values="0 0 0 0 0 0 0 0 0 0 0 0 0 0 0 0 0 0 1 0"/>
<feBlend mode="normal" in2="effect1_dropShadow" result="effect2_dropShadow"/>
<feBlend mode="normal" in="SourceGraphic" in2="effect2_dropShadow" result="shape"/>
</filter>
<filter id="filter14_f" x="246.09" y="38.2577" width="2.32113" height="3.54734" filterUnits="userSpaceOnUse" color-interpolation-filters="sRGB">
<feFlood flood-opacity="0" result="BackgroundImageFix"/>
<feBlend mode="normal" in="SourceGraphic" in2="BackgroundImageFix" result="shape"/>
<feGaussianBlur stdDeviation="0.358865" result="effect1_foregroundBlur"/>
</filter>
<filter id="filter15_f" x="246.728" y="35.8271" width="5.24138" height="6.48982" filterUnits="userSpaceOnUse" color-interpolation-filters="sRGB">
<feFlood flood-opacity="0" result="BackgroundImageFix"/>
<feBlend mode="normal" in="SourceGraphic" in2="BackgroundImageFix" result="shape"/>
<feGaussianBlur stdDeviation="0.358865" result="effect1_foregroundBlur"/>
</filter>
<filter id="filter16_f" x="244.976" y="40.2391" width="6.46634" height="5.38152" filterUnits="userSpaceOnUse" color-interpolation-filters="sRGB">
<feFlood flood-opacity="0" result="BackgroundImageFix"/>
<feBlend mode="normal" in="SourceGraphic" in2="BackgroundImageFix" result="shape"/>
<feGaussianBlur stdDeviation="0.26943" result="effect1_foregroundBlur"/>
</filter>
<linearGradient id="paint0_linear" x1="12.012" y1="10.4413" x2="12.012" y2="880.71" gradientUnits="userSpaceOnUse">
<stop stop-color="#494949"/>
<stop offset="1" stop-color="#2C2C2C"/>
</linearGradient>
<linearGradient id="paint1_linear" x1="14.4144" y1="13.0517" x2="14.4144" y2="874.131" gradientUnits="userSpaceOnUse">
<stop stop-color="#676767"/>
<stop offset="0.0213301"/>
<stop offset="0.978505"/>
<stop offset="1" stop-color="#676767"/>
</linearGradient>
<linearGradient id="paint2_linear" x1="121.383" y1="189.385" x2="121.718" y2="189.385" gradientUnits="userSpaceOnUse">
<stop stop-color="#5F5A6D"/>
<stop offset="0.00734796" stop-color="#D2CBE4"/>
<stop offset="1" stop-color="#C4BED4"/>
<stop offset="1" stop-color="#AEA6C3"/>
</linearGradient>
<linearGradient id="paint3_linear" x1="121.383" y1="218.693" x2="121.718" y2="218.693" gradientUnits="userSpaceOnUse">
<stop stop-color="#5F5A6D"/>
<stop offset="0.00734796" stop-color="#D2CBE4"/>
<stop offset="1" stop-color="#C4BED4"/>
<stop offset="1" stop-color="#AEA6C3"/>
</linearGradient>
<linearGradient id="paint4_linear" x1="121.383" y1="248.693" x2="121.718" y2="248.693" gradientUnits="userSpaceOnUse">
<stop stop-color="#5F5A6D"/>
<stop offset="0.00734796" stop-color="#D2CBE4"/>
<stop offset="1" stop-color="#C4BED4"/>
<stop offset="1" stop-color="#AEA6C3"/>
</linearGradient>
<linearGradient id="paint5_linear" x1="292.513" y1="230.312" x2="292.492" y2="230.312" gradientUnits="userSpaceOnUse">
<stop stop-color="#79758F"/>
<stop offset="1" stop-color="#BEB9D1"/>
</linearGradient>
<linearGradient id="paint6_linear" x1="293" y1="213.076" x2="293" y2="250.745" gradientUnits="userSpaceOnUse">
<stop stop-color="#615D70"/>
<stop offset="0.0951211" stop-opacity="0.01"/>
<stop offset="0.824228" stop-color="#615D70" stop-opacity="0.01"/>
<stop offset="1" stop-color="#615D70" stop-opacity="0.992555"/>
</linearGradient>
<radialGradient id="paint7_radial" cx="0" cy="0" r="1" gradientUnits="userSpaceOnUse" gradientTransform="translate(255.439 49.3417) rotate(47.5688) scale(11.1152 11.0708)">
<stop stop-color="#434343"/>
<stop offset="1" stop-color="#121212"/>
</radialGradient>
<radialGradient id="paint8_radial" cx="0" cy="0" r="1" gradientUnits="userSpaceOnUse" gradientTransform="translate(248.214 36.5448) rotate(90) scale(6.89231 6.34319)">
<stop stop-color="#2A4893"/>
<stop offset="1" stop-color="#213054"/>
</radialGradient>
<linearGradient id="paint9_linear" x1="209" y1="243" x2="209" y2="323" gradientUnits="userSpaceOnUse">
<stop stop-color="#54ADFF"/>
<stop offset="0.343142" stop-color="#4BA2F1"/>
<stop offset="0.619917" stop-color="#3299F9"/>
<stop offset="1" stop-color="#3A8CD8"/>
</linearGradient>
<linearGradient id="paint10_linear" x1="209.5" y1="276" x2="209.5" y2="283" gradientUnits="userSpaceOnUse">
<stop stop-color="#53ACFE"/>
<stop offset="1" stop-color="#3298F5"/>
</linearGradient>
<linearGradient id="paint11_linear" x1="210" y1="620" x2="210" y2="660" gradientUnits="userSpaceOnUse">
<stop stop-color="#54ADFF"/>
<stop offset="0.343142" stop-color="#4BA2F1"/>
<stop offset="0.619917" stop-color="#3299F9"/>
<stop offset="1" stop-color="#3A8CD8"/>
</linearGradient>
<clipPath id="clip0">
<rect width="45.6711" height="1.37854" fill="white" transform="translate(184.983 887.517)"/>
</clipPath>
<clipPath id="clip1">
<rect width="47.3626" height="8.27077" fill="white" transform="translate(182.581 36.5448)"/>
</clipPath>
<clipPath id="clip2">
<rect width="10.572" height="11.4872" fill="white" transform="translate(242.641 33.9344)"/>
</clipPath>
</defs>
</svg>
